<svg width="600" height="468" viewBox="0 0 600 468" fill="none" xmlns="http://www.w3.org/2000/svg">
<path d="M90.1352 423.16C90.1352 423.16 71.3662 406.178 71.7353 393.988C72.1598 380.04 85.466 386.773 86.1673 381.742C86.8871 376.728 72.1228 342.469 92.682 342.728C113.241 342.987 103.681 375.841 109.255 378.874C114.828 381.89 124.074 378.282 121.583 391.583C119.092 404.902 98.3109 422.993 98.3109 422.993L90.1352 423.16Z" fill="#3FB1B5"/>
<path d="M33.7731 423.288C30.5619 423.288 27.3322 421.789 24.7116 419.089C22.2386 416.536 20.5222 413.095 19.987 409.636C18.8797 402.347 22.9214 396.502 30.8203 394.023C38.2208 391.692 42.7793 393.024 45.5291 395.004C46.1012 392.284 47.1163 389.473 48.7403 386.883C52.2838 381.241 59.7766 374.97 75.4082 377.171C85.1711 378.54 91.7227 382.462 94.8601 388.844C96.8164 392.802 97.2224 397.316 96.8902 401.626C97.0932 400.738 97.2962 399.85 97.4807 398.944C99.1602 390.583 99.6769 382.11 98.9941 373.804C98.1451 363.427 95.4137 353.234 90.8922 343.522C90.763 343.245 90.8738 342.912 91.1506 342.782C91.4274 342.653 91.7596 342.764 91.8888 343.06C96.4657 352.901 99.234 363.223 100.083 373.749C100.766 382.166 100.249 390.73 98.5327 399.203C95.6168 413.632 90.154 422.936 90.0986 423.029L89.139 422.474C89.1759 422.418 91.9811 417.387 93.9558 410.801C97.2224 399.869 95.709 393.098 93.8451 389.343C90.8737 383.313 84.6174 379.594 75.2421 378.281C66.9372 377.116 55.7718 377.782 49.6816 387.493C48.0206 390.139 47.024 393.061 46.5073 395.818C46.6364 395.947 46.7656 396.058 46.8948 396.188C49.7923 399.11 50.5121 403.254 49.7369 405.677C49.3678 406.806 48.685 407.527 47.7991 407.675C47.4669 407.731 46.8026 407.694 46.212 406.787C45.1231 405.141 44.551 400.96 45.3077 396.262C42.8531 394.282 38.5346 392.802 31.1709 395.115C27.203 396.354 24.3425 398.407 22.6261 401.182C21.1497 403.568 20.6145 406.454 21.0943 409.506C21.5926 412.744 23.1982 415.962 25.5236 418.349C27.9412 420.846 30.8756 422.215 33.7916 422.215C34.1053 422.215 34.3452 422.455 34.3452 422.77C34.3452 423.084 34.0869 423.288 33.7731 423.288ZM46.2858 397.149C45.7321 401.238 46.212 404.771 47.1347 406.158C47.3193 406.436 47.5038 406.584 47.633 406.565C48.2421 406.473 48.5558 405.751 48.685 405.326C49.3494 403.235 48.6296 399.647 46.2858 397.149Z" fill="#FFCF2D"/>
<path d="M127.84 423.29C127.6 423.29 127.397 423.142 127.323 422.92C127.231 422.624 127.378 422.309 127.674 422.217C127.748 422.198 134.631 419.849 141.607 416.279C150.706 411.636 155.836 407.048 156.39 403.034C156.741 400.537 155.32 398.151 152.145 395.949C148.879 393.674 145.335 393.008 141.644 393.988C127.84 397.651 115.752 422.716 115.641 422.975C115.512 423.253 115.179 423.364 114.903 423.234C114.626 423.105 114.515 422.772 114.644 422.494C114.681 422.439 117.763 416.002 122.543 409.194C129.002 400 135.351 394.525 141.368 392.934C145.391 391.861 149.229 392.583 152.791 395.061C156.335 397.522 157.922 400.259 157.497 403.219C156.021 413.708 129.169 422.901 128.024 423.29C127.951 423.271 127.895 423.29 127.84 423.29Z" fill="#FFCF2D"/>
<path d="M121.99 422.938C121.879 422.938 121.75 422.901 121.657 422.827C121.417 422.642 121.362 422.291 121.547 422.05C121.602 421.995 126.271 415.742 132.38 409.36C140.629 400.74 147.458 395.968 152.644 395.191C152.939 395.154 153.234 395.357 153.271 395.653C153.308 395.949 153.105 396.245 152.81 396.282C140.962 398.058 122.636 422.439 122.451 422.698C122.34 422.864 122.174 422.938 121.99 422.938Z" fill="#FFCF2D"/>
<path d="M98.6248 423.049C98.551 423.049 98.4772 423.03 98.4034 423.012C98.1265 422.882 97.9973 422.568 98.1081 422.29C98.2004 422.05 108.24 398.705 117.043 384.979C117.209 384.72 117.56 384.646 117.8 384.813C118.058 384.979 118.132 385.33 117.966 385.571C109.218 399.223 99.2154 422.494 99.1231 422.716C99.0493 422.919 98.8463 423.049 98.6248 423.049Z" fill="#FFCF2D"/>
<path d="M108.222 402.977L108.665 402.089C109.071 401.276 112.688 394.006 114.681 392.618C115.751 391.878 117.043 391.601 118.317 391.823C119.59 392.063 120.697 392.785 121.436 393.858C122.174 394.931 122.451 396.244 122.211 397.52C121.971 398.797 121.251 399.888 120.199 400.61C118.169 402.015 110.141 402.792 109.218 402.885L108.222 402.977ZM117.431 392.84C116.674 392.84 115.936 393.062 115.308 393.506C113.998 394.431 111.433 399.093 110.104 401.664C112.965 401.35 118.224 400.61 119.553 399.685C120.365 399.13 120.919 398.279 121.103 397.298C121.288 396.299 121.066 395.301 120.494 394.468C119.922 393.636 119.073 393.081 118.095 392.896C117.874 392.877 117.652 392.84 117.431 392.84Z" fill="#FFCF2D"/>
<path d="M115.973 387.012L116.416 386.124C116.822 385.311 120.439 378.041 122.432 376.653C123.503 375.913 124.795 375.636 126.068 375.858C127.341 376.098 128.449 376.82 129.187 377.893C129.925 378.966 130.202 380.279 129.962 381.555C129.722 382.832 129.002 383.923 127.95 384.645C125.92 386.05 117.892 386.827 116.97 386.92L115.973 387.012ZM125.182 376.894C124.425 376.894 123.687 377.116 123.06 377.56C121.749 378.485 119.184 383.146 117.855 385.718C120.716 385.403 125.976 384.663 127.304 383.738C128.117 383.183 128.67 382.332 128.855 381.352C129.039 380.353 128.818 379.354 128.246 378.522C127.674 377.689 126.825 377.134 125.847 376.949C125.625 376.912 125.404 376.894 125.182 376.894Z" fill="#FFCF2D"/>
<path d="M121.269 377.837L121.325 376.857C121.362 375.95 121.823 367.848 123.133 365.776C124.554 363.501 127.563 362.817 129.833 364.241C132.084 365.665 132.767 368.662 131.346 370.956C130.054 373.028 122.949 376.931 122.155 377.375L121.269 377.837ZM127.249 364.592C125.994 364.592 124.776 365.221 124.075 366.35C123.207 367.719 122.69 373.009 122.487 375.895C124.997 374.471 129.537 371.714 130.386 370.345C131.494 368.588 130.977 366.257 129.224 365.166C128.633 364.777 127.932 364.592 127.249 364.592Z" fill="#FFCF2D"/>
<path d="M107.889 403.013L107.409 402.144C106.966 401.349 103.091 394.227 103.109 391.766C103.128 390.471 103.644 389.251 104.567 388.344C105.472 387.456 106.671 386.957 107.945 386.957C107.963 386.957 107.981 386.957 108 386.957C109.292 386.957 110.51 387.456 111.433 388.381C112.337 389.306 112.835 390.527 112.835 391.84C112.817 394.282 108.849 401.349 108.406 402.144L107.889 403.013ZM107.945 388.067C106.966 388.067 106.044 388.437 105.342 389.14C104.623 389.843 104.235 390.786 104.217 391.785C104.198 393.413 106.542 398.185 107.889 400.738C109.273 398.204 111.673 393.45 111.691 391.859C111.709 390.86 111.322 389.898 110.621 389.195C109.919 388.455 108.96 388.067 107.945 388.067Z" fill="#FFCF2D"/>
<path d="M116.582 387.254L116.102 386.385C115.659 385.589 111.783 378.467 111.802 376.007C111.82 373.362 114.016 371.197 116.674 371.197C117.966 371.197 119.184 371.697 120.107 372.622C121.011 373.547 121.509 374.768 121.509 376.081C121.491 378.523 117.523 385.589 117.08 386.385L116.582 387.254ZM112.909 376.007C112.891 377.635 115.234 382.407 116.582 384.96C117.966 382.426 120.365 377.672 120.383 376.062C120.402 375.064 120.014 374.102 119.313 373.399C118.612 372.696 117.67 372.289 116.674 372.289C114.588 372.307 112.927 373.935 112.909 376.007Z" fill="#FFCF2D"/>
<path d="M599.704 422.142H0V423.252H599.704V422.142Z" fill="#66B0F0"/>
<path d="M248.297 52.2295H396.622C426.612 52.2295 454.627 67.0282 471.588 91.7606L539.54 192.096C545.15 200.254 540.075 211.372 530.183 211.372H454.553L424.342 171.803C420.78 166.79 412.918 168.992 412.42 175.152L406.33 249.682H244.569L230.949 173.912C230.119 167.993 222.478 166.18 219.027 171.063L191.271 206.876H100.821L171.394 94.7759C188.078 68.2676 217.108 52.2295 248.297 52.2295Z" fill="white"/>
<path d="M406.828 250.2H244.09L244.016 249.737L230.377 173.931C230.027 171.433 228.292 169.51 225.837 168.918C223.364 168.326 220.928 169.251 219.452 171.322L219.433 171.341L191.51 207.376H99.7877L170.896 94.4244C179.145 81.346 190.625 70.4874 204.115 63.0325C217.606 55.5776 232.887 51.619 248.279 51.619H396.604C426.741 51.619 454.941 66.4917 472.012 91.3906L539.964 191.726C542.807 195.87 543.176 201.123 540.906 205.434C538.783 209.466 534.76 211.871 530.146 211.871H454.277L423.881 172.062C422.091 169.528 419.341 169.214 417.385 169.75C415.41 170.305 413.214 171.988 412.955 175.115L406.828 250.2ZM245.012 249.09H405.795L411.848 175.078C412.088 172.025 414.155 169.547 417.089 168.733C420.042 167.919 422.995 168.955 424.785 171.452L454.83 210.798H530.202C534.409 210.798 538.064 208.615 539.983 204.953C542.05 201.012 541.718 196.203 539.097 192.392L471.145 92.0566C454.277 67.4536 426.428 52.7659 396.641 52.7659H248.316C233.109 52.7659 218.012 56.669 204.688 64.0314C191.363 71.4123 180.013 82.1229 171.856 95.0348L101.818 206.266H190.975L218.547 170.675C220.282 168.215 223.161 167.123 226.096 167.845C228.993 168.548 231.06 170.823 231.466 173.764L245.012 249.09Z" fill="#3FB1B5"/>
<path d="M338.673 90.9284L362.702 170.953H303.313L329.685 90.9284H338.673Z" fill="#FE5244"/>
<g opacity="0.2">
<g opacity="0.2">
<g opacity="0.2">
<path opacity="0.2" d="M319.516 121.859V170.953H317.91V126.668L318.445 125.04L319.516 121.859Z" fill="white"/>
</g>
<g opacity="0.2">
<path opacity="0.2" d="M336.421 91.1128H334.833V170.952H336.421V91.1128Z" fill="white"/>
</g>
<g opacity="0.2">
<path opacity="0.2" d="M353.345 139.801V170.952H351.758V134.492L353.345 139.801Z" fill="white"/>
</g>
</g>
<g opacity="0.2">
<g opacity="0.2">
<path opacity="0.2" d="M359.601 160.592H306.708L307.243 158.964H359.102L359.601 160.592Z" fill="white"/>
</g>
<g opacity="0.2">
<path opacity="0.2" d="M354.488 143.63H312.318L312.853 142.003H353.99L354.488 143.63Z" fill="white"/>
</g>
<g opacity="0.2">
<path opacity="0.2" d="M349.413 126.667H317.91L318.446 125.039H348.915L349.413 126.667Z" fill="white"/>
</g>
<g opacity="0.2">
<path opacity="0.2" d="M344.302 109.704H323.521L324.056 108.076H343.822L344.302 109.704Z" fill="white"/>
</g>
<g opacity="0.2">
<path opacity="0.2" d="M339.189 92.7406H329.131L329.648 91.1128H338.746L339.189 92.7406Z" fill="white"/>
</g>
</g>
</g>
<path d="M349.413 90.0959L359.102 100.529L390.347 52.2296H362.664L349.413 90.0959Z" fill="white"/>
<path d="M359.195 101.416L348.786 90.2063L362.277 51.6556H391.362L359.195 101.416ZM350.041 89.9658L359.029 99.6405L389.314 52.784H363.052L350.041 89.9658Z" fill="#3FB1B5"/>
<path d="M320.678 90.0959L310.952 100.529L277.105 52.2296H307.39L320.678 90.0959Z" fill="white"/>
<path d="M310.897 101.398L276.053 51.6556H307.796L321.324 90.2063L310.897 101.398ZM278.176 52.784L311.008 99.659L320.051 89.9659L307.003 52.784H278.176Z" fill="#3FB1B5"/>
<path d="M551.425 220.546C551.425 239.451 537.99 257.358 517.08 260.428L431.411 273.063L412.605 275.838V202.824L418.4 201.455L501.983 181.57C518.113 177.74 534.926 184.233 544.301 197.922C549.192 204.989 551.425 212.85 551.425 220.546Z" fill="#A0505A"/>
<path d="M431.411 273.064L412.605 275.839V202.826L418.4 201.457L431.411 273.064Z" fill="#73325A"/>
<path d="M412.605 294.504H232.518V186.177C232.518 177.76 239.328 170.953 247.707 170.953H397.397C405.795 170.953 412.586 177.779 412.586 186.177V294.504H412.605Z" fill="#FFCF2D"/>
<path d="M333.671 241.838H311.451C308.941 241.838 306.892 239.785 306.892 237.269V227.927C306.892 225.412 308.941 223.358 311.451 223.358H333.671C336.181 223.358 338.23 225.412 338.23 227.927V237.269C338.211 239.803 336.181 241.838 333.671 241.838ZM311.451 224.32C309.458 224.32 307.815 225.948 307.815 227.964V237.306C307.815 239.304 309.439 240.95 311.451 240.95H333.671C335.664 240.95 337.307 239.322 337.307 237.306V227.964C337.307 225.967 335.683 224.32 333.671 224.32H311.451Z" fill="white"/>
<path d="M295.765 293.319L486.408 264.739C523.503 259.079 556.944 287.881 556.944 325.525C556.944 359.488 529.501 386.996 495.617 386.996H297.02L295.765 293.319Z" fill="#0096A0"/>
<path d="M270.001 403.754L155.264 425.953C140.648 429.06 125.957 416.851 125.311 401.054L123.614 359.081C122.746 337.826 143.065 325.043 162.222 334.145L270.001 403.754Z" fill="white"/>
<path d="M150.651 426.989C145.299 426.989 139.91 425.12 135.37 421.569C128.947 416.574 125.072 409.101 124.758 401.072L123.06 359.099C122.857 353.938 123.835 349.147 125.994 344.874C128.006 340.878 131.051 337.456 134.761 334.996C142.752 329.705 153.105 329.206 162.462 333.645L162.517 333.682L271.459 404.032L155.357 426.489C153.807 426.822 152.238 426.989 150.651 426.989ZM149.433 331.759C144.413 331.759 139.541 333.164 135.351 335.939C127.84 340.934 123.743 349.351 124.149 359.081L125.847 401.054C126.161 408.749 129.87 415.908 136.034 420.718C141.663 425.102 148.621 426.822 155.117 425.435L268.525 403.496L161.945 334.644C157.867 332.702 153.604 331.759 149.433 331.759Z" fill="#FE5244"/>
<path d="M158.66 425.435C153.456 425.435 148.215 423.604 143.786 420.163C137.511 415.279 133.727 408.009 133.377 400.166L131.605 359.414C131.181 349.591 135.259 341.082 142.844 336.05C150.54 330.945 160.58 330.482 169.66 334.829L169.18 335.828C160.451 331.648 150.835 332.073 143.453 336.975C136.219 341.785 132.306 349.943 132.712 359.358L134.484 400.11C134.816 407.621 138.452 414.595 144.468 419.275C149.913 423.511 156.63 425.194 162.905 423.881L163.127 424.972C161.65 425.287 160.155 425.435 158.66 425.435Z" fill="#FE5244"/>
<path d="M162.204 334.126L270.001 403.754L245.419 408.49L162.204 334.126Z" fill="#FE5244"/>
<path d="M159.768 397.3L158.753 396.856L174.993 359.434C175.086 359.231 175.289 359.101 175.51 359.101C175.732 359.101 175.935 359.231 176.008 359.434L189.592 391.64L203.249 364.373L204.245 364.873L190.053 393.212C189.961 393.397 189.758 393.527 189.536 393.527C189.315 393.527 189.13 393.379 189.038 393.194L175.492 361.062L159.768 397.3Z" fill="#FE5244"/>
<path d="M174.366 394.784H174.348C174.126 394.784 173.942 394.636 173.849 394.432L157.941 354.66L158.974 354.254L174.403 392.86L189.407 362.226C189.499 362.041 189.702 361.912 189.905 361.912C190.127 361.912 190.311 362.041 190.404 362.245L202.473 388.735L201.458 389.197L189.868 363.78L174.827 394.488C174.772 394.654 174.569 394.784 174.366 394.784Z" fill="#FE5244"/>
<path d="M359.103 351.719C352.735 346.484 334.336 358.397 317.984 378.32C301.633 398.243 293.531 418.665 299.88 423.9C298.938 423.326 179.422 348.204 105.25 296.927C86.3892 283.904 76.4418 263.037 76.4418 241.912C76.4418 227.188 81.2955 212.352 91.3168 199.939C116.453 168.862 163.015 166.772 190.846 195.463L359.103 351.719Z" fill="#3FB1B5"/>
<path d="M340.934 397.279C357.282 377.357 365.378 356.956 359.018 351.712C352.657 346.469 334.249 358.368 317.901 378.291C301.553 398.213 293.457 418.615 299.817 423.858C306.178 429.102 324.586 417.202 340.934 397.279Z" fill="#FE5244"/>
<path d="M303.754 425.64C302.038 425.64 300.598 425.196 299.491 424.289C296.206 421.589 296.335 415.225 299.86 406.383C303.293 397.726 309.568 387.626 317.503 377.951C325.439 368.276 334.132 360.155 341.938 355.105C349.929 349.944 356.13 348.594 359.397 351.295C362.682 353.995 362.553 360.359 359.028 369.201C355.595 377.858 349.32 387.958 341.385 397.633C333.449 407.308 324.756 415.429 316.95 420.479C311.672 423.901 307.15 425.64 303.754 425.64ZM355.152 351.036C351.996 351.036 347.641 352.737 342.547 356.03C334.833 361.025 326.233 369.053 318.371 378.635C310.49 388.236 304.289 398.225 300.894 406.771C297.627 415.022 297.369 421.089 300.211 423.42C303.053 425.751 308.94 424.345 316.378 419.535C324.092 414.541 332.692 406.512 340.554 396.93C348.434 387.33 354.635 377.34 358.031 368.794C361.298 360.544 361.556 354.476 358.714 352.146C357.81 351.406 356.61 351.036 355.152 351.036Z" fill="white"/>
<path d="M411.737 417.298L390.459 453.499C379.662 471.831 355.283 472.164 344.117 454.11L308.296 396.283C311.359 391.196 315.143 385.887 319.498 380.578C327.379 370.978 335.739 363.245 343.01 358.38L400.018 380.116C413.971 385.462 419.71 403.683 411.737 417.298Z" fill="white"/>
<path d="M367.076 468.001C362.61 468.001 358.18 466.854 354.249 464.671C349.968 462.303 346.387 458.844 343.638 454.386L307.65 396.264L307.834 395.968C310.935 390.825 314.718 385.516 319.092 380.189C326.714 370.884 335.111 362.967 342.715 357.88L342.955 357.713L343.213 357.806L400.221 379.541C406.736 382.039 411.885 387.533 414.358 394.581C417.034 402.258 416.259 410.619 412.199 417.537L390.92 453.739C388.244 458.271 384.738 461.841 380.474 464.32C376.47 466.651 371.948 467.908 367.353 467.964C367.279 468.001 367.186 468.001 367.076 468.001ZM308.96 396.264L344.597 453.813C347.236 458.104 350.669 461.416 354.803 463.709C358.66 465.837 362.997 466.947 367.371 466.891C371.763 466.836 376.1 465.633 379.939 463.395C384.036 461.009 387.413 457.568 389.997 453.202L411.276 417.001C415.152 410.378 415.908 402.35 413.343 394.988C410.981 388.236 406.072 383.001 399.852 380.614L343.102 358.971C335.646 364.003 327.434 371.772 319.959 380.892C315.678 386.108 311.987 391.269 308.96 396.264Z" fill="#FE5244"/>
<path d="M362.241 461.767C358.033 461.767 353.862 460.675 350.134 458.585C346.074 456.31 342.697 452.98 340.094 448.707L341.036 448.133C343.545 452.24 346.794 455.422 350.669 457.605C354.305 459.639 358.402 460.694 362.518 460.638C366.652 460.583 370.73 459.417 374.329 457.29C378.186 454.996 381.36 451.704 383.76 447.523L403.82 412.801C407.604 406.234 408.397 398.151 405.943 391.177C403.784 385.054 399.483 380.485 393.799 378.265L394.205 377.229C400.185 379.56 404.725 384.369 406.976 390.807C409.542 398.077 408.711 406.512 404.78 413.356L384.719 448.078C382.209 452.425 378.906 455.847 374.883 458.234C371.118 460.472 366.854 461.693 362.536 461.748C362.444 461.748 362.333 461.767 362.241 461.767Z" fill="#FE5244"/>
<path d="M344.339 417.167C344.228 417.167 344.117 417.13 344.007 417.056C343.822 416.926 343.748 416.686 343.803 416.482L352.219 382.63L324.296 396.8L323.798 395.801L352.791 381.076C352.976 380.984 353.216 381.002 353.382 381.132C353.548 381.261 353.622 381.483 353.566 381.705L345.188 415.409L378.703 394.802L379.275 395.746L344.597 417.074C344.542 417.148 344.449 417.167 344.339 417.167Z" fill="#FE5244"/>
<path d="M355.891 430.782L354.803 430.541L363.569 390.881L335.037 404.976C334.853 405.069 334.631 405.05 334.465 404.921C334.299 404.791 334.207 404.588 334.244 404.384L338.784 377.284L339.872 377.469L335.517 403.496L364.123 389.364C364.307 389.271 364.547 389.29 364.713 389.419C364.879 389.549 364.953 389.771 364.916 389.974L355.891 430.782Z" fill="#FE5244"/>
<path d="M377.964 58.7777C377.816 61.201 376.745 63.3653 375.085 64.9192C373.424 66.4731 371.227 67.4165 368.791 67.4165H360.431L359.896 76.2587C359.435 83.5471 352.219 90.9835 344.67 90.9835H323.502C316.009 90.9835 308.738 83.5471 308.277 76.2587L307.741 67.4165H299.27C296.853 67.4165 294.62 66.4731 292.977 64.9192C291.316 63.3653 290.246 61.201 290.098 58.7407C289.803 53.4317 294.14 49.0291 299.455 49.0291H306.616L305.822 35.5622C305.674 32.7134 307.907 30.3271 310.75 30.3271H357.46C360.302 30.3271 362.535 32.7134 362.387 35.5622L361.594 49.0291H368.828C374.07 49.0661 378.259 53.5057 377.964 58.7777Z" fill="#A0505A"/>
<path d="M361.576 49.0289H369.179C369.179 49.0289 376.451 22.5761 369.438 15.7872C362.443 8.99826 319.424 -6.63292 305.527 3.11576C295.377 10.2562 300.913 49.0289 300.913 49.0289H306.524C306.524 49.0289 329.131 32.7873 332.675 34.1931C336.237 35.599 322.451 42.4249 325.219 43.7568C335.554 48.7329 354.138 30.6969 358.42 30.6969C362.702 30.6969 361.576 49.0289 361.576 49.0289Z" fill="#73325A"/>
<path d="M351.998 55.9647C351.924 55.9647 351.832 55.9462 351.758 55.8907C351.702 55.8537 346.886 52.0431 340.814 54.5404C340.629 54.6143 340.408 54.5219 340.334 54.3369C340.26 54.1519 340.352 53.9299 340.537 53.8559C347.033 51.1921 352.182 55.2803 352.238 55.3173C352.404 55.4468 352.422 55.6873 352.293 55.8352C352.201 55.9277 352.09 55.9647 351.998 55.9647Z" fill="#73325A"/>
<path d="M351.998 56.3358C351.832 56.3358 351.666 56.2803 351.536 56.1693C351.499 56.1323 346.812 52.4696 340.961 54.8744C340.592 55.0224 340.149 54.8559 340.002 54.4674C339.854 54.0975 340.02 53.6535 340.408 53.5055C347.107 50.7493 352.422 54.9669 352.478 55.0224C352.625 55.1519 352.717 55.3184 352.754 55.5218C352.773 55.7253 352.717 55.9103 352.588 56.0583C352.422 56.2433 352.219 56.3358 351.998 56.3358ZM351.961 55.5773C351.979 55.5958 351.998 55.5958 351.998 55.5958C351.998 55.5958 351.979 55.5958 351.961 55.5773Z" fill="#73325A"/>
<path d="M335.259 81.2705C333.967 81.2705 332.472 81.0115 330.737 80.3826C330.553 80.3086 330.442 80.1051 330.516 79.9016C330.59 79.7166 330.793 79.6056 330.996 79.6796C334.262 80.882 337.123 80.8081 339.264 79.4392C340.869 78.4217 341.515 77.0713 341.515 77.0528C341.608 76.8678 341.829 76.7938 342.014 76.8678C342.198 76.9603 342.272 77.1823 342.198 77.3673C342.161 77.4228 340.297 81.2705 335.259 81.2705Z" fill="#73325A"/>
<path d="M335.259 81.6412C333.82 81.6412 332.251 81.3267 330.608 80.7348C330.424 80.6608 330.276 80.5313 330.184 80.3463C330.11 80.1613 330.092 79.9578 330.166 79.7729C330.239 79.5879 330.369 79.4399 330.553 79.3474C330.738 79.2734 330.941 79.2549 331.125 79.3289C334.281 80.4943 337.012 80.4203 339.061 79.1254C340.556 78.182 341.183 76.9056 341.183 76.8871C341.257 76.7021 341.423 76.5726 341.608 76.4986C341.792 76.4247 341.995 76.4431 342.18 76.5171C342.549 76.6836 342.715 77.1276 342.53 77.4976C342.494 77.5901 340.537 81.6412 335.259 81.6412ZM330.867 80.0318C332.546 80.6423 334.133 80.9383 335.554 80.9013C334.115 80.9383 332.546 80.6608 330.867 80.0318Z" fill="#73325A"/>
<path d="M332.822 76.0718C332.01 76.0718 331.161 76.0533 330.423 75.9978C329.021 75.9053 328.725 72.8531 328.356 67.47C328.116 64.0293 327.839 60.1261 327.009 58.4058C324.148 52.5233 314.459 54.5951 314.367 54.6136C314.164 54.6506 313.98 54.5396 313.924 54.3361C313.869 54.1326 313.998 53.9476 314.201 53.8921C314.312 53.8736 316.803 53.3187 319.701 53.5407C323.613 53.8366 326.363 55.409 327.673 58.0728C328.559 59.9041 328.836 63.7148 329.094 67.396C329.242 69.5048 329.39 71.5027 329.63 73.001C329.98 75.1099 330.405 75.2394 330.479 75.2394C332.582 75.3873 335.812 75.2394 335.849 75.2394C336.052 75.2209 336.218 75.3873 336.237 75.5908C336.255 75.7943 336.089 75.9608 335.886 75.9793C335.794 75.9978 334.391 76.0718 332.822 76.0718Z" fill="#73325A"/>
<path d="M332.822 76.443C331.881 76.443 331.05 76.4245 330.405 76.369C328.688 76.2396 328.393 73.2428 327.987 67.4898C327.747 64.0861 327.47 60.2199 326.677 58.5736C323.945 52.9685 314.533 54.9664 314.441 54.9849C314.256 55.0219 314.053 54.9849 313.887 54.8924C313.721 54.7814 313.61 54.6149 313.555 54.4299C313.499 54.2449 313.555 54.0414 313.647 53.875C313.758 53.7085 313.924 53.5975 314.109 53.542C314.219 53.5235 316.766 52.9685 319.719 53.1905C323.779 53.505 326.64 55.1328 327.987 57.9261C328.91 59.8314 329.168 63.6791 329.445 67.3973C329.593 69.5061 329.74 71.4855 329.98 72.9653C330.22 74.4267 330.478 74.8152 330.552 74.9077C332.619 75.0372 335.775 74.9077 335.812 74.9077C336.015 74.8892 336.199 74.9632 336.347 75.0927C336.495 75.2222 336.587 75.4071 336.587 75.6106C336.606 76.0176 336.292 76.3691 335.886 76.3876C335.738 76.3876 334.354 76.443 332.822 76.443ZM330.441 75.6291C331.106 75.6846 331.899 75.7031 332.822 75.7031C334.335 75.7031 335.683 75.6476 335.867 75.6291C335.72 75.6476 332.545 75.7771 330.441 75.6291ZM327.378 58.3146C328.208 60.1274 328.485 64.0121 328.725 67.4343C328.744 67.6933 328.762 67.9708 328.78 68.2297C328.762 67.9708 328.744 67.6933 328.725 67.4343C328.467 63.8456 328.208 60.1274 327.378 58.3146ZM318.242 53.8934C320.882 53.8934 324.204 54.4114 326.271 56.6682C324.831 55.0958 322.579 54.1524 319.682 53.9304C316.84 53.7085 314.385 54.2449 314.293 54.2634C314.33 54.2634 316.028 53.8934 318.242 53.8934Z" fill="#73325A"/>
<path d="M345.206 65.9177C346.184 65.9177 346.977 64.5925 346.977 62.9579C346.977 61.3233 346.184 59.9982 345.206 59.9982C344.227 59.9982 343.434 61.3233 343.434 62.9579C343.434 64.5925 344.227 65.9177 345.206 65.9177Z" fill="#73325A"/>
<path d="M322.192 65.9177C323.171 65.9177 323.964 64.5925 323.964 62.9579C323.964 61.3233 323.171 59.9982 322.192 59.9982C321.214 59.9982 320.42 61.3233 320.42 62.9579C320.42 64.5925 321.214 65.9177 322.192 65.9177Z" fill="#73325A"/>
<path d="M304.789 60.5161C304.605 60.5161 304.439 60.3681 304.42 60.1646C304.199 56.6499 301.283 53.9122 297.776 53.9122C297.573 53.9122 297.407 53.7457 297.407 53.5422C297.407 53.3387 297.573 53.1722 297.776 53.1722C301.67 53.1722 304.918 56.2245 305.14 60.1276C305.158 60.3311 304.992 60.5161 304.789 60.5161Z" fill="#73325A"/>
<path d="M304.789 60.8869C304.402 60.8869 304.069 60.5909 304.051 60.184C303.848 56.8728 301.098 54.283 297.776 54.283C297.37 54.283 297.038 53.95 297.038 53.543C297.038 53.1361 297.37 52.8031 297.776 52.8031C301.873 52.8031 305.269 56.0033 305.509 60.0915C305.527 60.295 305.454 60.48 305.324 60.6279C305.195 60.7759 305.011 60.8684 304.808 60.8684C304.808 60.8869 304.808 60.8869 304.789 60.8869ZM302.242 55.1709C303.7 56.3733 304.66 58.1491 304.789 60.1655V60.5354V60.1655C304.66 58.1491 303.7 56.3733 302.242 55.1709Z" fill="#73325A"/>
<path d="M362.887 60.7179H362.868C362.665 60.6995 362.518 60.533 362.518 60.3295C362.758 56.2043 366.153 52.9671 370.269 52.9671C370.472 52.9671 370.638 53.1336 370.638 53.3371C370.638 53.5406 370.472 53.707 370.269 53.707C366.559 53.707 363.477 56.6298 363.256 60.385C363.256 60.5515 363.09 60.7179 362.887 60.7179Z" fill="#73325A"/>
<path d="M362.886 61.0891C362.868 61.0891 362.849 61.0891 362.849 61.0891C362.443 61.0706 362.13 60.7191 362.148 60.3121C362.406 55.9835 365.968 52.5983 370.268 52.5983C370.674 52.5983 371.007 52.9312 371.007 53.3382C371.007 53.7452 370.674 54.0781 370.268 54.0781C366.743 54.0781 363.827 56.8529 363.624 60.4046C363.606 60.7746 363.292 61.0891 362.886 61.0891ZM362.886 60.3491V60.7191V60.3491Z" fill="#73325A"/>
<path d="M533.192 421.311C533.192 421.311 577.189 342.193 550.466 341.749C537.99 341.545 525.238 384.351 530.073 421.311H533.192Z" fill="#3FB1B5"/>
<path d="M531.29 421.439C531.253 421.439 531.216 421.439 531.161 421.421C530.865 421.347 530.681 421.051 530.736 420.755C530.755 420.644 533.338 409.119 538.746 396.059C541.92 388.382 545.463 381.686 549.228 376.137C553.971 369.181 559.12 364.039 564.546 360.857C571.633 356.695 579.255 355.825 587.209 358.23C594.665 360.487 598.891 364.279 599.814 369.514C600.589 373.972 598.928 379.485 594.868 385.904C591.657 390.972 586.932 396.633 580.842 402.737C570.489 413.096 559.6 421.236 559.489 421.328C559.25 421.513 558.899 421.458 558.714 421.217C558.53 420.977 558.585 420.625 558.825 420.44C558.936 420.366 569.769 412.264 580.067 401.96C589.498 392.526 600.386 379.263 598.725 369.718C597.895 364.927 593.909 361.43 586.896 359.303C579.237 356.991 571.91 357.842 565.118 361.819C559.84 364.927 554.802 369.958 550.151 376.765C546.423 382.241 542.917 388.882 539.761 396.485C534.39 409.452 531.843 420.884 531.807 420.995C531.77 421.254 531.53 421.439 531.29 421.439Z" fill="#FFCF2D"/>
<path d="M478.49 422.716C478.471 422.716 478.453 422.716 478.435 422.716C474.946 422.383 471.68 420.625 469.004 417.592C466.512 414.78 464.741 411.099 464.002 407.196C463.264 403.329 463.596 399.537 464.944 396.226C466.457 392.545 469.244 389.585 473.027 387.68C477.733 385.293 482.144 384.221 486.13 384.48C489.028 384.664 491.649 385.534 493.955 387.069C494.103 383.703 494.823 380.669 496.115 378.283C498.477 373.843 502.703 371.623 508.314 371.845C513.094 372.049 517.191 374.805 520.494 380.04C523.096 384.147 525.2 389.807 526.787 396.836C529.463 408.768 529.685 420.755 529.685 420.866C529.685 421.18 529.445 421.421 529.131 421.421C528.836 421.421 528.578 421.18 528.578 420.866C528.578 420.755 528.356 408.86 525.699 397.04C524.148 390.14 522.081 384.609 519.553 380.595C516.452 375.693 512.651 373.121 508.277 372.937C503.054 372.715 499.289 374.675 497.111 378.782C495.819 381.205 495.118 384.35 495.063 387.846C495.081 387.865 495.1 387.883 495.118 387.883C497.259 389.604 499.012 391.971 500.101 394.561C501.042 396.818 501.374 399.075 501.005 400.555C500.747 401.535 500.175 402.164 499.4 402.293C498.846 402.386 497.979 402.238 497.037 400.943C495.598 398.964 494.435 395.042 494.085 390.954C494.011 390.085 493.974 389.234 493.974 388.401C490.191 385.589 483.694 383.555 473.581 388.66C470 390.473 467.454 393.155 466.033 396.651C464.759 399.741 464.464 403.329 465.147 406.992C465.848 410.692 467.527 414.206 469.89 416.852C472.381 419.664 475.389 421.31 478.601 421.606C478.896 421.643 479.136 421.902 479.099 422.216C479.007 422.494 478.767 422.716 478.49 422.716ZM495.044 389.345C495.063 389.844 495.1 390.362 495.137 390.88C495.469 394.783 496.558 398.501 497.886 400.314C498.348 400.962 498.828 401.295 499.16 401.239C499.51 401.184 499.75 400.869 499.898 400.314C500.489 397.983 498.92 392.859 495.044 389.345Z" fill="#FFCF2D"/>
<path d="M547.808 421.441C547.734 421.441 547.661 421.422 547.605 421.404C547.328 421.293 547.181 420.96 547.31 420.683C547.365 420.553 552.662 407.715 560.395 393.786C564.935 385.591 569.438 378.636 573.738 373.104C579.145 366.149 584.294 361.432 589.037 359.064C589.314 358.935 589.646 359.046 589.776 359.305C589.905 359.582 589.794 359.915 589.536 360.045C583.778 362.912 574.199 371.199 561.373 394.304C553.659 408.178 548.38 420.96 548.343 421.09C548.233 421.312 548.03 421.441 547.808 421.441Z" fill="#FFCF2D"/>
<path d="M524.887 394.432C524.831 394.154 519.941 366.721 519.738 348.833L520.845 348.815C520.956 358.119 522.34 369.958 523.484 378.264C524.721 387.273 525.957 394.154 525.976 394.228L524.887 394.432Z" fill="#FFCF2D"/>
<path d="M522.487 370.569L522.358 369.588C522.229 368.589 521.159 359.765 522.155 357.287C522.672 355.973 523.687 354.956 524.979 354.419C526.271 353.865 527.71 353.865 529.002 354.401C531.697 355.492 533.007 358.582 531.937 361.282C530.94 363.78 524.056 369.329 523.263 369.958L522.487 370.569ZM527.028 355.104C526.474 355.104 525.939 355.215 525.422 355.437C524.407 355.862 523.613 356.676 523.207 357.694C522.524 359.377 523.023 365.315 523.355 368.441C525.773 366.443 530.239 362.522 530.903 360.838C531.771 358.693 530.719 356.251 528.596 355.4C528.079 355.196 527.563 355.104 527.028 355.104Z" fill="#FFCF2D"/>
<path d="M519.977 351.257L519.848 350.276C519.719 349.277 518.649 340.454 519.645 337.975C520.162 336.662 521.177 335.644 522.469 335.108C523.761 334.553 525.2 334.553 526.492 335.089C529.223 336.236 530.515 339.251 529.426 341.971C528.43 344.468 521.546 350.017 520.753 350.646L519.977 351.257ZM524.517 335.792C523.964 335.792 523.428 335.903 522.912 336.125C521.897 336.551 521.103 337.364 520.697 338.382C520.014 340.065 520.513 346.003 520.845 349.129C523.262 347.132 527.729 343.21 528.393 341.527C529.26 339.381 528.245 336.995 526.068 336.088C525.569 335.903 525.034 335.792 524.517 335.792Z" fill="#FFCF2D"/>
<path d="M522.118 370.809L521.25 370.347C520.364 369.884 512.539 365.741 511.1 363.484C509.513 361.024 510.177 357.805 512.632 356.177C515.086 354.586 518.353 355.289 519.921 357.712C521.361 359.951 521.988 368.793 522.062 369.792L522.118 370.809ZM512.023 362.873C513.001 364.39 518.131 367.387 520.881 368.885C520.623 365.759 519.977 359.84 518.999 358.323C517.762 356.399 515.178 355.862 513.241 357.102C511.303 358.397 510.768 360.931 512.023 362.873Z" fill="#FFCF2D"/>
</svg>
