<svg width="20" height="20" viewBox="0 0 20 20" fill="none" xmlns="http://www.w3.org/2000/svg">
<path d="M10 19.1667C15.0542 19.1667 19.1667 15.0546 19.1667 10C19.1667 9.12758 19.0449 8.26783 18.8037 7.44445C18.6849 7.03957 18.2622 6.80701 17.8562 6.9258C17.4509 7.04423 17.2191 7.46851 17.3375 7.87339C17.5372 8.55746 17.6389 9.27323 17.6389 10C17.6389 14.212 14.212 17.6389 10 17.6389C5.78798 17.6389 2.36111 14.212 2.36111 10C2.36111 5.78799 5.78798 2.36112 10 2.36112C11.5308 2.36112 13.0035 2.80871 14.259 3.65522C14.6085 3.89114 15.0837 3.79845 15.3192 3.44895C15.555 3.09909 15.463 2.62427 15.1132 2.38854C13.6044 1.3712 11.8364 0.833344 10 0.833344C4.94576 0.833344 0.833333 4.9454 0.833333 10C0.833333 15.0546 4.94576 19.1667 10 19.1667Z" fill="#FF3F3A"/>
<path d="M18.5773 1.91066L9.99985 10.4877L7.25571 7.744C6.93019 7.41868 6.40284 7.41868 6.07732 7.744C5.752 8.06952 5.752 8.59686 6.07732 8.92238L9.41065 12.2557C9.57362 12.4187 9.78643 12.4999 9.99985 12.4999C10.2133 12.4999 10.4261 12.4187 10.589 12.2557L19.7557 3.08905C20.081 2.76353 20.081 2.23619 19.7557 1.91066C19.4302 1.58535 18.9028 1.58535 18.5773 1.91066Z" fill="#FF3F3A"/>
</svg>
